<?xml version="1.0" standalone="no"?><!DOCTYPE svg PUBLIC "-//W3C//DTD SVG 1.1//EN" "http://www.w3.org/Graphics/SVG/1.1/DTD/svg11.dtd"><svg class="icon" width="64px" height="64.00px" viewBox="0 0 1024 1024" version="1.1" xmlns="http://www.w3.org/2000/svg"><path fill="#8CB4D6" d="M891.3 750.4L623.6 482.6c41-96.9 22.1-213.2-56.9-292.2s-195.3-97.9-292.1-56.9L402 261c26 26 26 68.1 0 94.1l-47.1 47.1c-26 26-68.1 26-94.1 0L133.4 274.7c-41 96.9-22.1 213.2 56.9 292.2s195.3 97.9 292.2 56.9l267.8 267.8c26 26 68.1 26 94.1 0l47.1-47.1c25.8-26 25.8-68.1-0.2-94.1z m0 0" /></svg>