<?xml version="1.0" standalone="no"?><!DOCTYPE svg PUBLIC "-//W3C//DTD SVG 1.1//EN" "http://www.w3.org/Graphics/SVG/1.1/DTD/svg11.dtd"><svg t="1603183257367" class="icon" viewBox="0 0 1024 1024" version="1.1" xmlns="http://www.w3.org/2000/svg" p-id="125101" xmlns:xlink="http://www.w3.org/1999/xlink" width="256" height="256"><defs><style type="text/css"></style></defs><path d="M150.337707 0h723.281448a135.559968 135.559968 0 0 1 135.559968 135.559968v542.416843A135.559968 135.559968 0 0 1 873.619155 814.067693H150.337707A135.559968 135.559968 0 0 1 14.777739 677.976811v-542.416843A135.559968 135.559968 0 0 1 150.337707 0z m185.8198 605.153147l54.861083-54.94957-130.87023-130.87023 131.047202-131.135687-54.861084-54.861083-185.819799 185.819799z m372.170512 0l185.8198-185.8198-185.8198-185.819799-54.949569 54.861084L784.602623 419.333347 653.820878 550.203577z m-210.153344 7.609763c48.401633-149.363724 74.770348-232.894149 115.650703-363.587408l-74.062463-23.183232a40685.068104 40685.068104 0 0 1-115.031304 362.791037z" p-id="125102" fill="#ffffff"></path><path d="M969.537566 986.172221a37.783359 37.783359 0 0 1-37.783359 37.783359h-840.613379a37.871845 37.871845 0 1 1 0-75.655204h840.613379a37.871845 37.871845 0 0 1 37.783359 37.871845z" p-id="125103" fill="#ffffff"></path></svg>