<?xml version="1.0" standalone="no"?><!DOCTYPE svg PUBLIC "-//W3C//DTD SVG 1.1//EN" "http://www.w3.org/Graphics/SVG/1.1/DTD/svg11.dtd"><svg class="icon" width="64px" height="64.00px" viewBox="0 0 1024 1024" version="1.1" xmlns="http://www.w3.org/2000/svg"><path fill="#8291A5" d="M944.496894 1024H79.503106V0h573.4559L944.496894 290.281739zM149.465839 954.037267h725.068322V319.348075L624.067578 69.962733H149.465839zM581.527056 341.645516l1.610733-318.009243 69.962733 0.354584-1.610733 318.007652zM581.797366 290.356472l318.007653-1.609143 0.354583 69.961143-318.007652 1.609143zM409.154783 807.878758h59.309316v63.602484H278.101863v-63.602484h49.069317v-330.732919H278.101863V413.416149h156.525715q95.960248 0 145.029565 37.11205T628.710559 559.701863q0 72.045714-49.291925 108.855653t-144.870559 36.794037h-25.440994z m0-331.368944v166.14559h25.440993q56.526708 0 83.843976-20.495901t27.333167-63.045963q0-41.929938-27.174161-62.266832t-84.002982-20.336894z" /></svg>