<?xml version="1.0" standalone="no"?><!DOCTYPE svg PUBLIC "-//W3C//DTD SVG 1.1//EN" "http://www.w3.org/Graphics/SVG/1.1/DTD/svg11.dtd"><svg class="icon" width="64px" height="64.00px" viewBox="0 0 1024 1024" version="1.1" xmlns="http://www.w3.org/2000/svg"><path fill="#8291A5" d="M611.555556 541.553778L413.176889 810.666667 263.111111 674.040889l28.778667-36.330667 116.280889 105.877334L577.336889 512 611.555556 541.553778zM885.333333 232c0-51.477333-41.856-93.333333-93.333333-93.333333h-684.444444C56.078222 138.666667 14.222222 180.522667 14.222222 232v684.444444C14.222222 967.921778 56.078222 1009.777778 107.555556 1009.777778h684.444444c51.477333 0 93.333333-41.856 93.333333-93.333334v-684.444444zM107.555556 200.888889h684.444444a31.146667 31.146667 0 0 1 31.111111 31.111111V387.555556h-746.666667V232a31.146667 31.146667 0 0 1 31.111112-31.111111z m684.444444 746.666667h-684.444444a31.146667 31.146667 0 0 1-31.111112-31.111112V449.777778h746.666667v466.666666a31.146667 31.146667 0 0 1-31.111111 31.111112zM729.777778 263.111111h-62.222222v62.222222h62.222222V263.111111zM169.777778 325.333333H574.222222a31.111111 31.111111 0 0 0 0-62.222222H169.777778a31.111111 31.111111 0 1 0 0 62.222222zM916.444444 14.222222h-684.444444C180.522667 14.222222 138.666667 56.078222 138.666667 107.555556h62.222222a31.146667 31.146667 0 0 1 31.111111-31.111112h684.444444a31.146667 31.146667 0 0 1 31.111112 31.111112v684.444444a31.146667 31.146667 0 0 1-31.111112 31.111111v62.222222c51.477333 0 93.333333-41.856 93.333334-93.333333v-684.444444C1009.777778 56.078222 967.921778 14.222222 916.444444 14.222222z" /></svg>