<?xml version="1.0" standalone="no"?><!DOCTYPE svg PUBLIC "-//W3C//DTD SVG 1.1//EN" "http://www.w3.org/Graphics/SVG/1.1/DTD/svg11.dtd"><svg t="1603205539624" class="icon" viewBox="0 0 1024 1024" version="1.1" xmlns="http://www.w3.org/2000/svg" p-id="3342" xmlns:xlink="http://www.w3.org/1999/xlink" width="256" height="256"><defs><style type="text/css"></style></defs><path d="M896 1024H128c-38.4 0-64-25.6-64-64V64c0-38.4 25.6-64 64-64h576l256 256v704c0 38.4-25.6 64-64 64z" fill="#1E91F2" p-id="3343"></path><path d="M768 256h192l-256-256v192c0 38.4 25.6 64 64 64z" fill="#FFFFFF" opacity=".46" p-id="3344"></path><path d="M332.8 723.2L256 384v-25.6c0-19.2 12.8-32 38.4-38.4 25.6 0 44.8 12.8 51.2 44.8l44.8 262.4 76.8-275.2c6.4-19.2 25.6-32 44.8-32 19.2 0 38.4 12.8 44.8 38.4l76.8 275.2 51.2-262.4c0-32 19.2-44.8 44.8-44.8 19.2 0 38.4 12.8 38.4 32v19.2l-70.4 339.2c-12.8 38.4-32 51.2-57.6 51.2-32 0-51.2-12.8-57.6-38.4L512 486.4l-64 243.2c-12.8 25.6-32 38.4-57.6 38.4-32 0-51.2-12.8-57.6-44.8z" fill="#FFFFFF" p-id="3345"></path></svg>