<?xml version="1.0" standalone="no"?><!DOCTYPE svg PUBLIC "-//W3C//DTD SVG 1.1//EN" "http://www.w3.org/Graphics/SVG/1.1/DTD/svg11.dtd"><svg class="icon" width="64px" height="64.00px" viewBox="0 0 1024 1024" version="1.1" xmlns="http://www.w3.org/2000/svg"><path fill="#ffffff" d="M318.4 352.8H720v-89.6H318.4v89.6z m378.4-222.4c-13.6 0-24.8 11.2-24.8 24.8s11.2 24.8 24.8 24.8 24.8-11.2 24.8-24.8-11.2-24.8-24.8-24.8z m-71.2 0c-13.6 0-24.8 11.2-24.8 24.8S612 180 625.6 180s24.8-11.2 24.8-24.8-10.4-24.8-24.8-24.8z m284.8 452.8l54.4-257.6c5.6-27.2-11.2-53.6-38.4-59.2L808 241.6V115.2c0-27.2-22.4-49.6-49.6-49.6H280c-27.2 0-49.6 22.4-49.6 49.6v34.4L112 174.4c-27.2 5.6-44 32-38.4 59.2L147.2 580c-41.6 2.4-75.2 37.6-75.2 79.2v220c0 44 36 80 80 80h734.4c44 0 80-36 80-80v-220c0-35.2-24-65.6-56-76zM280 115.2h478.4v80H280v-80z m-157.6 108l108-23.2v117.6l-57.6 12c-2.4 0.8-4.8 3.2-4 5.6l8 39.2c0.8 2.4 3.2 4.8 5.6 4l47.2-10.4v52.8l-36.8 8c-2.4 0.8-4 3.2-4 5.6l8 39.2c0.8 2.4 3.2 4 5.6 4l26.4-5.6v107.2h-32l-74.4-356z m151.2 505.6h-42.4c-16 0-28.8-12.8-28.8-28.8s12.8-28.8 28.8-28.8h42.4c16 0 28.8 12.8 28.8 28.8 0 15.2-12.8 28.8-28.8 28.8zM720 580V383.2H468.8v288c-12-8-22.4-18.4-31.2-30.4V383.2h-120V580H280V229.6h478.4v349.6H720z m140 0h-51.2v-65.6l26.4 5.6c2.4 0.8 5.6-0.8 5.6-4l11.2-53.6c0.8-2.4-0.8-5.6-4-5.6l-40-8.8v-38.4l51.2 11.2c2.4 0.8 5.6-1.6 5.6-4l4.8-22.4c0.8-2.4-1.6-5.6-4-5.6l-57.6-12V292l108 23.2L860 580z" /></svg>