<?xml version="1.0" standalone="no"?><!DOCTYPE svg PUBLIC "-//W3C//DTD SVG 1.1//EN" "http://www.w3.org/Graphics/SVG/1.1/DTD/svg11.dtd"><svg class="icon" width="64px" height="64.00px" viewBox="0 0 1024 1024" version="1.1" xmlns="http://www.w3.org/2000/svg"><path d="M492.650667 955.328l1.472 0.746667-0.64-0.298667-0.853334-0.426667zM123.52 472.810667l3.008 1.429333L512 677.12l385.472-202.88a42.666667 42.666667 0 0 1 39.722667 75.52l-405.12 213.226667c-0.789333 0.426667-1.6 0.832-2.432 1.194666l-2.197334 0.917334-0.746666 0.298666-0.789334 0.277334a33.578667 33.578667 0 0 1-1.557333 0.512l-1.301333 0.362666a33.237333 33.237333 0 0 1-1.984 0.490667l-1.194667 0.213333a26.773333 26.773333 0 0 1-3.264 0.490667 24.597333 24.597333 0 0 1-3.093333 0.234667 37.098667 37.098667 0 0 1-3.050667 0l-1.92-0.106667a27.648 27.648 0 0 1-2.986667-0.362667l-1.429333-0.213333-1.301333-0.298667-1.792-0.426666a61.738667 61.738667 0 0 1-4.906667-1.621334l-1.706667-0.768 0.64 0.298667-0.938666-0.405333 0.256 0.085333-1.92-0.917333-0.533334-0.256L86.826667 549.76a42.666667 42.666667 0 0 1 36.714666-76.949333zM492.650667 763.306667l1.472 0.746666-0.64-0.298666-0.853334-0.426667z m39.786666-688.192l414.570667 226.133333a21.333333 21.333333 0 0 1 0 37.461333l-414.570667 226.133334a42.666667 42.666667 0 0 1-40.874666 0L77.013333 338.730667a21.333333 21.333333 0 0 1 0-37.461334l414.570667-226.133333a42.666667 42.666667 0 0 1 40.874667 0zM512 161.194667L220.864 320 512 478.805333 803.136 320 512 161.194667z m-20.053333 793.813333L86.784 741.76a42.666667 42.666667 0 0 1 36.714667-76.949333l3.008 1.429333L512 869.12l385.472-202.88a42.666667 42.666667 0 0 1 39.722667 75.52l-405.12 213.226667c-0.789333 0.426667-1.6 0.832-2.432 1.194666l-2.197334 0.917334-0.746666 0.298666-0.789334 0.277334a33.578667 33.578667 0 0 1-1.557333 0.512l-1.301333 0.362666a33.237333 33.237333 0 0 1-1.984 0.490667l-1.194667 0.213333a26.773333 26.773333 0 0 1-3.264 0.490667 24.597333 24.597333 0 0 1-3.093333 0.234667 37.098667 37.098667 0 0 1-3.050667 0l-1.92-0.106667a27.648 27.648 0 0 1-2.986667-0.362667l-1.429333-0.213333-1.301333-0.298667-1.792-0.426666a61.738667 61.738667 0 0 1-4.906667-1.621334l-1.706667-0.768 0.64 0.298667-0.938666-0.405333 0.256 0.085333-1.92-0.917333-0.533334-0.256z" /></svg>