<?xml version="1.0" standalone="no"?><!DOCTYPE svg PUBLIC "-//W3C//DTD SVG 1.1//EN" "http://www.w3.org/Graphics/SVG/1.1/DTD/svg11.dtd"><svg class="icon" width="64px" height="58.20px" viewBox="0 0 1126 1024" version="1.1" xmlns="http://www.w3.org/2000/svg"><path fill="#8291A5" d="M342.340267 910.4896H106.666667a44.8 44.8 0 0 1-44.612267-44.970667V106.939733a44.970667 44.970667 0 0 1 45.056-44.970666h758.4256c24.849067 0 45.056 20.104533 45.056 44.612266v176.298667a30.976 30.976 0 1 0 61.952 0V106.581333C972.561067 47.752533 924.501333 0 865.450667 0H107.144533A107.144533 107.144533 0 0 0 0 107.178667v758.442666C0 924.842667 47.735467 972.8 106.666667 972.8h235.554133a30.890667 30.890667 0 0 0 30.976-30.976 30.890667 30.890667 0 0 0-30.856533-31.3344z m599.381333-75.8272c-17.237333 0-30.993067 13.994667-30.993067 30.976a44.765867 44.765867 0 0 1-44.9536 44.8512h-2.6624a30.976 30.976 0 1 0 0 61.952h2.56c59.272533 0 107.127467-47.854933 107.127467-106.8032a31.0784 31.0784 0 0 0-31.095467-30.976zM739.328 235.178667c0-17.015467-14.1312-30.378667-31.419733-30.378667h-522.752c-17.646933 0-31.4368 13.704533-31.4368 30.378667 0 16.981333 14.1312 30.3616 31.419733 30.3616H707.925333c17.527467 0.1024 31.419733-13.602133 31.419734-30.378667z m-554.308267 151.1424c-8.413867 0-16.349867 3.1744-22.186666 8.840533-5.8368 5.649067-9.233067 13.482667-9.233067 21.504 0 17.015467 14.1312 30.378667 31.419733 30.378667h355.498667c8.3968 0 16.349867-3.1744 22.186667-8.840534 5.8368-5.666133 9.216-13.482667 9.216-21.521066 0-16.9984-14.1312-30.378667-31.402667-30.378667H185.002667z m929.0752 162.935466l-174.762666-169.506133c-16.366933-15.872-42.871467-15.9744-59.221334-0.119467L479.163733 768.494933c-16.247467 15.752533-29.44 46.7968-29.44 69.12v105.130667c0 44.765867 37.614933 81.2544 83.8656 81.2544h108.407467c23.483733 0 55.022933-12.8 71.2704-28.552533l401.152-388.983467a39.799467 39.799467 0 0 0-0.341333-57.207467zM668.7744 952.490667c-4.676267 4.522667-20.206933 10.752-26.9824 10.752h-108.407467c-11.5712 0-21.162667-9.1648-21.162666-20.497067v-105.045333c0-6.331733 6.673067-21.742933 11.1104-26.1632L799.402667 543.914667l145.322666 140.936533-275.933866 267.639467z m320.324267-310.6816l-145.322667-140.970667 65.877333-63.778133 145.322667 140.9536-65.877333 63.7952zM176.708267 563.2c-6.144 0-12.049067 2.679467-16.3328 7.458133A27.477333 27.477333 0 0 0 153.6 588.8c0 14.336 10.2912 25.6 23.108267 25.6h260.983466c6.144 0 12.049067-2.679467 16.3328-7.458133 4.266667-4.778667 6.775467-11.3664 6.775467-18.141867 0-14.336-10.2912-25.6-23.108267-25.6H176.708267z" /></svg>