<?xml version="1.0" standalone="no"?><!DOCTYPE svg PUBLIC "-//W3C//DTD SVG 1.1//EN" "http://www.w3.org/Graphics/SVG/1.1/DTD/svg11.dtd"><svg class="icon" width="64px" height="64.00px" viewBox="0 0 1024 1024" version="1.1" xmlns="http://www.w3.org/2000/svg"><path fill="#8291A5" d="M872.773452 677.890456l-204.270034 192.576698-455.511606-483.258506 204.468226-192.510634 455.313414 483.192442z m-370.784466-297.222148c-15.260795 4.029907-24.014281 12.585201-29.794885 23.716992-4.888739 9.480191 1.552505 16.516012 7.729494 23.056353l108.774454 115.446923c46.046641 48.887395 91.89509 97.972982 138.338115 146.530057 4.690547 4.888739 14.963507 10.801472 18.828253 8.81955 10.041735-5.119964 19.687086-13.146745 26.194395-22.36268 6.011828-8.456198-2.213146-16.185692-8.258006-22.626936-21.735072-23.188481-43.602271-46.343929-65.403407-69.466346-60.514667-64.214254-120.996303-128.494572-181.67613-192.510634-4.393259-4.624483-10.504184-7.597365-14.732283-10.570247z m-91.994185-94.801908c-6.804597 5.450284-14.20377 10.537216-20.545919 16.681172-9.182903 8.98471-9.381095 17.903357-1.222185 27.317483 6.21002 7.200981 12.816425 14.104674 19.455862 20.942303 6.110924 6.276084 13.212809 9.480191 21.140495 3.435331 9.942639-7.663429 24.443697-12.188817 22.131456-29.134245a12.618233 12.618233 0 0 0-3.005914-6.342149c-7.99375-8.852582-15.921435-17.738197-24.443698-26.029234-2.93985-2.840754-7.531301-3.930811-13.543129-6.870661zM240.408391 496.412518l73.331093 77.69132c13.411002 14.170738 26.425619 28.704829 40.199973 42.44615 7.465237 7.465237 5.483316 13.080681-1.255217 18.828254-10.735408 9.248967-23.188481 7.927686-34.848785-3.963843-17.506973-17.903357-34.881817-36.004906-52.091502-54.172519-2.972882-3.138042-4.987836-7.200981-7.696461-11.131792l-18.861286 18.431869c19.191606 19.951342 38.185019 39.638428 57.145401 59.424611 15.293827 15.855371 17.275748 29.728821 5.846668 40.299069-11.032696 10.239927-23.386673 7.134917-39.242044-7.927686-19.885278-18.894318-40.563325-36.929802-60.911051-55.328639l2.543466-4.294164-16.879364 16.053564 49.151651 51.067509c4.129003 4.294163 8.390134 8.48923 12.420041 12.882489 11.660304 12.684297 12.651265 26.227427 2.708626 35.905809-9.909607 9.678383-23.981249 8.48923-35.839746-3.567458-15.855371-16.185692-31.479519-32.635639-47.136698-49.019523-4.624483-4.855707-9.083807-9.909607-14.864411-16.251756l-16.912396 17.969421 55.65896 58.334554c3.005914 3.171074 6.21002 6.176988 8.984711 9.579287 8.224974 10.041735 8.092846 22.990288-0.066064 31.446486-8.555294 8.852582-22.03236 9.447159-32.338352 0.660641-6.309117-5.417252-11.561208-12.089721-17.672132-17.738197-16.714204-15.326859-33.6266-30.389462-50.869317-45.914513-13.113713 10.239927-13.87345 33.329312 2.378306 50.4399 29.827917 31.479519 60.019187 62.595685 90.078329 93.843979 15.690211 16.350852 31.34739 32.767767 47.235793 48.920427 19.687086 19.951342 40.530293 20.512887 60.613764 1.255217 54.271615-51.992405 108.312006-104.216035 162.451492-156.3736 3.402298-3.303202 6.903693-6.507309 11.296952-10.702375l41.719446 43.932591c-12.618233 13.047649-24.344601 25.864075-36.797674 37.920763-61.175308 59.193386-122.548808 118.188581-183.889276 177.216807-19.158574 18.464901-34.683625 18.200645-53.412782-1.156121-76.832487-79.475049-153.59891-159.049194-230.299269-238.689403-15.855371-16.48298-16.185692-34.022984-0.33032-49.349843 74.322053-71.910715 148.875331-143.557175 223.362544-215.269698 1.123089-1.090057 2.543466-1.882825 5.086931-3.699587z m354.169358-256.460631l88.063375 91.036257c6.606405 6.870661 13.411002 13.609194 19.720118 20.744111 11.957593 13.510098 6.276084 35.179105-10.834504 39.17598-5.21906 1.222185-13.609194-0.264256-17.044524-3.864747-50.638092-52.851238-100.648576-106.26402-150.758156-159.544674-0.759737-0.825801-1.057025-2.081017-1.849793-3.765651l92.489666-89.384656 107.354077-103.522362c18.299741-17.672133 35.113041-17.506973 52.752142 0.759737 76.469135 79.276857 152.905237 158.619778 229.308308 237.929666 18.332773 19.026446 18.068517 34.749689-1.156121 53.37975-66.328303 64.14819-132.722671 128.197284-199.084007 192.246378-1.387345 1.354313-3.038946 2.411338-5.119963 4.029907l-38.085924-40.332101c21.008367-23.254545 40.530293-46.409993 61.703821-67.880809 29.563661-30.026109 60.514667-58.664874 90.60684-88.195503 17.738197-17.407876 18.068517-39.01082 0.759737-57.046305a32381.292778 32381.292778 0 0 0-138.305083-143.358982c-15.822339-16.31782-37.392251-18.894318-53.54491-3.897779-42.545246 39.407204-83.90134 80.102657-126.975099 121.491783z m-269.772537-144.349944l-205.128867 193.237339C93.31679 260.002325 66.329627 233.015162 42.38141 203.517565c-18.464901-22.792096-13.080681-56.220504 9.579286-77.889512A8925.186724 8925.186724 0 0 1 165.722986 18.5052C189.340883-3.361999 222.10865-6.764298 243.97585 13.220077c28.07722 25.599818 53.445814 54.172519 80.862394 82.381866zM208.697649 53.783402L84.761496 170.518573 122.484067 210.322162l123.73796-116.70214-37.590443-39.83662z m486.132292 843.670915l203.642425-192.081217 9.447159 29.596693 65.601599 208.002653c0.726705 2.27921 1.123089 4.624483 1.849793 6.936725 3.963843 12.684297 2.873786 24.542794-7.167949 34.089048-10.570248 10.008703-22.924224 9.513223-35.674585 4.690548l-65.667663-25.005242c-54.932255-20.975335-109.864511-41.983702-164.763734-63.025101-1.816761-0.66064-3.567459-1.552505-7.267045-3.204107z m186.201517-124.993177L762.314365 884.27454c32.008031 12.221849 61.835948 23.783057 91.89509 34.782721 2.312242 0.858833 6.771565-1.321281 9.050774-3.435331 14.03861-12.882489 27.482644-26.359555 41.653382-39.076884 5.285124-4.723579 6.474277-9.149871 4.294163-15.558083-4.822675-14.302866-9.248967-28.737861-13.807386-43.073759l-14.434994-45.485096zM192.280733 365.077192L139.627687 309.153976l204.270034-192.576698 52.653046 55.923217-204.20397 192.576697z m577.333709-31.479518c-42.479182 0.66064-76.964615-33.263248-77.955576-76.700359-0.924897-42.44615 33.890856-77.790416 77.460096-78.649248 41.62035-0.858833 77.261903 34.287241 78.087704 77.030679 0.858833 42.512214-33.923888 77.625256-77.625256 78.318928z m30.951006-76.799455a31.248294 31.248294 0 0 0-30.290365-31.941967 31.149198 31.149198 0 0 0-32.239256 31.248294 31.18223 31.18223 0 0 0 31.050103 31.248295 30.818878 30.818878 0 0 0 31.479518-30.554622z" /></svg>